<svg width="1589" height="1589" viewBox="0 0 1589 1589" fill="none" xmlns="http://www.w3.org/2000/svg">
<g clip-path="url(#clip0_54_2)">
<path d="M230.51 1170.84C231.805 1164.5 235.41 1158.86 240.627 1155.02C245.843 1151.18 252.299 1149.42 258.743 1150.07C265.187 1150.72 271.16 1153.74 275.503 1158.54C279.846 1163.35 282.251 1169.59 282.251 1176.07C282.251 1182.55 279.846 1188.79 275.503 1193.6C271.16 1198.4 265.187 1201.42 258.743 1202.07C252.299 1202.72 245.843 1200.96 240.627 1197.12C235.41 1193.28 231.805 1187.64 230.51 1181.3H0V1170.84H230.51ZM1066.83 1421.74C1068.12 1415.39 1071.73 1409.75 1076.94 1405.91C1082.16 1402.08 1088.62 1400.31 1095.06 1400.96C1101.5 1401.61 1107.48 1404.63 1111.82 1409.44C1116.16 1414.24 1118.57 1420.49 1118.57 1426.96C1118.57 1433.44 1116.16 1439.69 1111.82 1444.49C1107.48 1449.29 1101.5 1452.32 1095.06 1452.97C1088.62 1453.62 1082.16 1451.85 1076.94 1448.01C1071.73 1444.18 1068.12 1438.54 1066.83 1432.19H428.612V1421.74H1066.83ZM1368.94 1181.3C1367.65 1187.64 1364.04 1193.28 1358.83 1197.12C1353.61 1200.96 1347.15 1202.72 1340.71 1202.07C1334.27 1201.42 1328.29 1198.4 1323.95 1193.6C1319.61 1188.79 1317.2 1182.55 1317.2 1176.07C1317.2 1169.59 1319.61 1163.35 1323.95 1158.54C1328.29 1153.74 1334.27 1150.72 1340.71 1150.07C1347.15 1149.42 1353.61 1151.18 1358.83 1155.02C1364.04 1158.86 1367.65 1164.5 1368.94 1170.84H1589V1181.3H1368.94ZM1368.94 1264.93C1367.65 1271.27 1364.04 1276.91 1358.83 1280.75C1353.61 1284.59 1347.15 1286.35 1340.71 1285.7C1334.27 1285.05 1328.29 1282.03 1323.95 1277.23C1319.61 1272.42 1317.2 1266.18 1317.2 1259.7C1317.2 1253.22 1319.61 1246.98 1323.95 1242.17C1328.29 1237.37 1334.27 1234.35 1340.71 1233.7C1347.15 1233.05 1353.61 1234.81 1358.83 1238.65C1364.04 1242.49 1367.65 1248.13 1368.94 1254.47H1589V1264.93H1368.94ZM1401.35 669.053C1402.65 662.707 1406.25 657.068 1411.47 653.23C1416.69 649.391 1423.14 647.626 1429.59 648.277C1436.03 648.928 1442 651.948 1446.35 656.753C1450.69 661.557 1453.09 667.803 1453.09 674.28C1453.09 680.756 1450.69 687.002 1446.35 691.806C1442 696.611 1436.03 699.631 1429.59 700.282C1423.14 700.933 1416.69 699.168 1411.47 695.33C1406.25 691.491 1402.65 685.852 1401.35 679.507H950.786C949.491 685.852 945.886 691.491 940.669 695.33C935.453 699.168 928.997 700.933 922.553 700.282C916.109 699.631 910.136 696.611 905.793 691.806C901.45 687.002 899.045 680.756 899.045 674.28C899.045 667.803 901.45 661.557 905.793 656.753C910.136 651.948 916.109 648.928 922.553 648.277C928.997 647.626 935.453 649.391 940.669 653.23C945.886 657.068 949.491 662.707 950.786 669.053H1401.35ZM63.2464 418.158C64.5417 411.812 68.1471 406.173 73.3637 402.335C78.5802 398.496 85.0362 396.731 91.48 397.382C97.9238 398.033 103.896 401.054 108.24 405.858C112.583 410.662 114.988 416.908 114.988 423.385C114.988 429.861 112.583 436.107 108.24 440.912C103.896 445.716 97.9238 448.736 91.48 449.387C85.0362 450.038 78.5802 448.273 73.3637 444.435C68.1471 440.596 64.5417 434.958 63.2464 428.612H0V418.158H63.2464ZM1034.42 595.875C1033.12 602.221 1029.52 607.86 1024.3 611.698C1019.08 615.537 1012.63 617.301 1006.18 616.651C999.741 616 993.768 612.979 989.425 608.175C985.081 603.371 982.676 597.125 982.676 590.648C982.676 584.171 985.081 577.925 989.425 573.121C993.768 568.317 999.741 565.296 1006.18 564.645C1012.63 563.995 1019.08 565.759 1024.3 569.598C1029.52 573.436 1033.12 579.075 1034.42 585.421H1484.98C1486.28 579.075 1489.88 573.436 1495.1 569.598C1500.32 565.759 1506.77 563.995 1513.22 564.645C1519.66 565.296 1525.63 568.317 1529.98 573.121C1534.32 577.925 1536.72 584.171 1536.72 590.648C1536.72 597.125 1534.32 603.371 1529.98 608.175C1525.63 612.979 1519.66 616 1513.22 616.651C1506.77 617.301 1500.32 615.537 1495.1 611.698C1489.88 607.86 1486.28 602.221 1484.98 595.875H1034.42ZM1348.56 63.2464C1354.9 64.5417 1360.54 68.1471 1364.38 73.3637C1368.22 78.5802 1369.99 85.0362 1369.33 91.48C1368.68 97.9238 1365.66 103.896 1360.86 108.24C1356.05 112.583 1349.81 114.988 1343.33 114.988C1336.86 114.988 1330.61 112.583 1325.81 108.24C1321 103.896 1317.98 97.9238 1317.33 91.48C1316.68 85.0362 1318.44 78.5802 1322.28 73.3637C1326.12 68.1471 1331.76 64.5417 1338.11 63.2464V0H1348.56V63.2464ZM1014.03 1150.46C1020.38 1151.75 1026.02 1155.36 1029.86 1160.57C1033.69 1165.79 1035.46 1172.25 1034.81 1178.69C1034.16 1185.13 1031.14 1191.11 1026.33 1195.45C1021.53 1199.79 1015.28 1202.2 1008.81 1202.2C1002.33 1202.2 996.083 1199.79 991.279 1195.45C986.475 1191.11 983.454 1185.13 982.803 1178.69C982.152 1172.25 983.917 1165.79 987.756 1160.57C991.594 1155.36 997.233 1151.75 1003.58 1150.46V867.155C997.233 865.86 991.594 862.254 987.756 857.038C983.917 851.821 982.152 845.365 982.803 838.921C983.454 832.477 986.475 826.505 991.279 822.161C996.083 817.818 1002.33 815.413 1008.81 815.413C1015.28 815.413 1021.53 817.818 1026.33 822.161C1031.14 826.505 1034.16 832.477 1034.81 838.921C1035.46 845.365 1033.69 851.821 1029.86 857.038C1026.02 862.254 1020.38 865.86 1014.03 867.155V1150.46ZM1264.93 114.471V418.158H1589V428.612H1254.47V114.471C1248.13 113.175 1242.49 109.57 1238.65 104.353C1234.81 99.1369 1233.05 92.6809 1233.7 86.2371C1234.35 79.7933 1237.37 73.8207 1242.17 69.4773C1246.98 65.1338 1253.22 62.729 1259.7 62.729C1266.18 62.729 1272.42 65.1338 1277.23 69.4773C1282.03 73.8207 1285.05 79.7933 1285.7 86.2371C1286.35 92.6809 1284.59 99.1369 1280.75 104.353C1276.91 109.57 1271.27 113.175 1264.93 114.471ZM1348.56 198.102V334.526H1589V344.98H1338.11V198.102C1331.76 196.807 1326.12 193.202 1322.28 187.985C1318.44 182.768 1316.68 176.312 1317.33 169.869C1317.98 163.425 1321 157.452 1325.81 153.109C1330.61 148.765 1336.86 146.361 1343.33 146.361C1349.81 146.361 1356.05 148.765 1360.86 153.109C1365.66 157.452 1368.68 163.425 1369.33 169.869C1369.99 176.312 1368.22 182.768 1364.38 187.985C1360.54 193.202 1354.9 196.807 1348.56 198.102ZM679.507 699.892V1087.21H763.138V1150.46C769.484 1151.75 775.123 1155.36 778.961 1160.57C782.8 1165.79 784.565 1172.25 783.914 1178.69C783.263 1185.13 780.242 1191.11 775.438 1195.45C770.634 1199.79 764.388 1202.2 757.911 1202.2C751.435 1202.2 745.189 1199.79 740.384 1195.45C735.58 1191.11 732.56 1185.13 731.909 1178.69C731.258 1172.25 733.023 1165.79 736.861 1160.57C740.7 1155.36 746.338 1151.75 752.684 1150.46V1097.66H669.053V699.892C662.707 698.596 657.068 694.991 653.23 689.775C649.391 684.558 647.626 678.102 648.277 671.658C648.928 665.214 651.948 659.242 656.753 654.898C661.557 650.555 667.803 648.15 674.28 648.15C680.756 648.15 687.002 650.555 691.806 654.898C696.611 659.242 699.631 665.214 700.282 671.658C700.933 678.102 699.168 684.558 695.33 689.775C691.491 694.991 685.852 698.596 679.507 699.892ZM648.667 585.421C649.963 579.075 653.568 573.436 658.785 569.598C664.001 565.759 670.457 563.995 676.901 564.645C683.345 565.296 689.317 568.317 693.661 573.121C698.004 577.925 700.409 584.171 700.409 590.648C700.409 597.125 698.004 603.371 693.661 608.175C689.317 612.979 683.345 616 676.901 616.651C670.457 617.301 664.001 615.537 658.785 611.698C653.568 607.86 649.963 602.221 648.667 595.875H595.875V846.77H448.997C447.702 853.115 444.096 858.754 438.88 862.593C433.663 866.431 427.207 868.196 420.763 867.545C414.32 866.894 408.347 863.874 404.004 859.07C399.66 854.265 397.255 848.019 397.255 841.543C397.255 835.066 399.66 828.82 404.004 824.016C408.347 819.212 414.32 816.191 420.763 815.54C427.207 814.889 433.663 816.654 438.88 820.493C444.096 824.331 447.702 829.97 448.997 836.316H585.421V585.421H648.667ZM616.26 1264.93C614.965 1271.27 611.359 1276.91 606.143 1280.75C600.926 1284.59 594.47 1286.35 588.027 1285.7C581.583 1285.05 575.61 1282.03 571.267 1277.23C566.923 1272.42 564.518 1266.18 564.518 1259.7C564.518 1253.22 566.923 1246.98 571.267 1242.17C575.61 1237.37 581.583 1234.35 588.027 1233.7C594.47 1233.05 600.926 1234.81 606.143 1238.65C611.359 1242.49 614.965 1248.13 616.26 1254.47H919.947V867.155C913.602 865.86 907.963 862.254 904.124 857.038C900.286 851.821 898.521 845.365 899.172 838.921C899.823 832.477 902.843 826.505 907.647 822.161C912.452 817.818 918.698 815.413 925.174 815.413C931.651 815.413 937.897 817.818 942.701 822.161C947.505 826.505 950.526 832.477 951.177 838.921C951.828 845.365 950.063 851.821 946.224 857.038C942.386 862.254 936.747 865.86 930.401 867.155V1264.93H616.26ZM532.629 930.401C531.333 936.747 527.728 942.386 522.511 946.224C517.295 950.063 510.839 951.828 504.395 951.177C497.951 950.526 491.979 947.505 487.635 942.701C483.292 937.897 480.887 931.651 480.887 925.174C480.887 918.698 483.292 912.452 487.635 907.647C491.979 902.843 497.951 899.823 504.395 899.172C510.839 898.521 517.295 900.286 522.511 904.124C527.728 907.963 531.333 913.602 532.629 919.947H595.875V1170.84H648.667C649.963 1164.5 653.568 1158.86 658.785 1155.02C664.001 1151.18 670.457 1149.42 676.901 1150.07C683.345 1150.72 689.317 1153.74 693.661 1158.54C698.004 1163.35 700.409 1169.59 700.409 1176.07C700.409 1182.55 698.004 1188.79 693.661 1193.6C689.317 1198.4 683.345 1201.42 676.901 1202.07C670.457 1202.72 664.001 1200.96 658.785 1197.12C653.568 1193.28 649.963 1187.64 648.667 1181.3H585.421V930.401H532.629ZM344.98 1484.98C351.326 1486.28 356.965 1489.88 360.803 1495.1C364.642 1500.32 366.407 1506.77 365.756 1513.22C365.105 1519.66 362.084 1525.63 357.28 1529.98C352.476 1534.32 346.23 1536.72 339.753 1536.72C333.277 1536.72 327.031 1534.32 322.226 1529.98C317.422 1525.63 314.402 1519.66 313.751 1513.22C313.1 1506.77 314.865 1500.32 318.703 1495.1C322.542 1489.88 328.181 1486.28 334.526 1484.98V1432.19H261.349V1589H250.895V1421.74H344.98V1484.98ZM1234.09 919.947C1235.38 913.602 1238.99 907.963 1244.21 904.124C1249.42 900.286 1255.88 898.521 1262.32 899.172C1268.77 899.823 1274.74 902.843 1279.08 907.647C1283.43 912.452 1285.83 918.698 1285.83 925.174C1285.83 931.651 1283.43 937.897 1279.08 942.701C1274.74 947.505 1268.77 950.526 1262.32 951.177C1255.88 951.828 1249.42 950.063 1244.21 946.224C1238.99 942.386 1235.38 936.747 1234.09 930.401H1181.3V1421.74H1432.19V1589H1421.74V1432.19H1170.84V919.947H1234.09ZM1368.94 763.138C1367.65 769.484 1364.04 775.123 1358.83 778.961C1353.61 782.8 1347.15 784.565 1340.71 783.914C1334.27 783.263 1328.29 780.242 1323.95 775.438C1319.61 770.634 1317.2 764.388 1317.2 757.911C1317.2 751.435 1319.61 745.189 1323.95 740.384C1328.29 735.58 1334.27 732.56 1340.71 731.909C1347.15 731.258 1353.61 733.023 1358.83 736.861C1364.04 740.7 1367.65 746.338 1368.94 752.684H1432.19V983.194C1438.54 984.489 1444.18 988.094 1448.01 993.311C1451.85 998.527 1453.62 1004.98 1452.97 1011.43C1452.32 1017.87 1449.29 1023.84 1444.49 1028.19C1439.69 1032.53 1433.44 1034.94 1426.96 1034.94C1420.49 1034.94 1414.24 1032.53 1409.44 1028.19C1404.63 1023.84 1401.61 1017.87 1400.96 1011.43C1400.31 1004.98 1402.08 998.527 1405.91 993.311C1409.75 988.094 1415.39 984.489 1421.74 983.194V763.138H1368.94ZM1034.42 1264.93C1033.12 1271.27 1029.52 1276.91 1024.3 1280.75C1019.08 1284.59 1012.63 1286.35 1006.18 1285.7C999.741 1285.05 993.768 1282.03 989.425 1277.23C985.081 1272.42 982.676 1266.18 982.676 1259.7C982.676 1253.22 985.081 1246.98 989.425 1242.17C993.768 1237.37 999.741 1234.35 1006.18 1233.7C1012.63 1233.05 1019.08 1234.81 1024.3 1238.65C1029.52 1242.49 1033.12 1248.13 1034.42 1254.47H1087.21V836.316H1170.84V763.138H950.786C949.491 769.484 945.886 775.123 940.669 778.961C935.453 782.8 928.997 784.565 922.553 783.914C916.109 783.263 910.136 780.242 905.793 775.438C901.45 770.634 899.045 764.388 899.045 757.911C899.045 751.435 901.45 745.189 905.793 740.384C910.136 735.58 916.109 732.56 922.553 731.909C928.997 731.258 935.453 733.023 940.669 736.861C945.886 740.7 949.491 746.338 950.786 752.684H1181.3V846.77H1097.66V1264.93H1034.42ZM1484.98 167.263C1486.28 160.917 1489.88 155.279 1495.1 151.44C1500.32 147.602 1506.77 145.837 1513.22 146.488C1519.66 147.139 1525.63 150.159 1529.98 154.963C1534.32 159.768 1536.72 166.014 1536.72 172.49C1536.72 178.967 1534.32 185.213 1529.98 190.017C1525.63 194.821 1519.66 197.842 1513.22 198.493C1506.77 199.144 1500.32 197.379 1495.1 193.54C1489.88 189.702 1486.28 184.063 1484.98 177.717H1421.74V0H1432.19V167.263H1484.98ZM512.243 532.629V763.138H281.734C280.439 769.484 276.833 775.123 271.617 778.961C266.4 782.8 259.944 784.565 253.5 783.914C247.056 783.263 241.084 780.242 236.74 775.438C232.397 770.634 229.992 764.388 229.992 757.911C229.992 751.435 232.397 745.189 236.74 740.384C241.084 735.58 247.056 732.56 253.5 731.909C259.944 731.258 266.4 733.023 271.617 736.861C276.833 740.7 280.439 746.338 281.734 752.684H501.789V532.629C495.444 531.333 489.805 527.728 485.966 522.511C482.128 517.295 480.363 510.839 481.014 504.395C481.665 497.951 484.685 491.979 489.49 487.635C494.294 483.292 500.54 480.887 507.016 480.887C513.493 480.887 519.739 483.292 524.543 487.635C529.348 491.979 532.368 497.951 533.019 504.395C533.67 510.839 531.905 517.295 528.066 522.511C524.228 527.728 518.589 531.333 512.243 532.629ZM281.734 177.717C280.439 184.063 276.833 189.702 271.617 193.54C266.4 197.379 259.944 199.144 253.5 198.493C247.056 197.842 241.084 194.821 236.74 190.017C232.397 185.213 229.992 178.967 229.992 172.49C229.992 166.014 232.397 159.768 236.74 154.963C241.084 150.159 247.056 147.139 253.5 146.488C259.944 145.837 266.4 147.602 271.617 151.44C276.833 155.279 280.439 160.917 281.734 167.263H418.158V0H428.612V177.717H281.734ZM595.875 198.102V344.98H428.612V679.507H365.365C364.07 685.852 360.465 691.491 355.248 695.33C350.032 699.168 343.576 700.933 337.132 700.282C330.688 699.631 324.715 696.611 320.372 691.806C316.029 687.002 313.624 680.756 313.624 674.28C313.624 667.803 316.029 661.557 320.372 656.753C324.715 651.948 330.688 648.928 337.132 648.277C343.576 647.626 350.032 649.391 355.248 653.23C360.465 657.068 364.07 662.707 365.365 669.053H418.158V334.526H585.421V198.102C579.075 196.807 573.436 193.202 569.598 187.985C565.759 182.768 563.995 176.312 564.645 169.869C565.296 163.425 568.317 157.452 573.121 153.109C577.925 148.765 584.171 146.361 590.648 146.361C597.125 146.361 603.371 148.765 608.175 153.109C612.979 157.452 616 163.425 616.651 169.869C617.301 176.312 615.537 182.768 611.698 187.985C607.86 193.202 602.221 196.807 595.875 198.102ZM532.629 428.612C531.333 434.958 527.728 440.596 522.511 444.435C517.295 448.273 510.839 450.038 504.395 449.387C497.951 448.736 491.979 445.716 487.635 440.912C483.292 436.107 480.887 429.861 480.887 423.385C480.887 416.908 483.292 410.662 487.635 405.858C491.979 401.054 497.951 398.033 504.395 397.382C510.839 396.731 517.295 398.496 522.511 402.335C527.728 406.173 531.333 411.812 532.629 418.158H669.053V198.102C662.707 196.807 657.068 193.202 653.23 187.985C649.391 182.768 647.626 176.312 648.277 169.869C648.928 163.425 651.948 157.452 656.753 153.109C661.557 148.765 667.803 146.361 674.28 146.361C680.756 146.361 687.002 148.765 691.806 153.109C696.611 157.452 699.631 163.425 700.282 169.869C700.933 176.312 699.168 182.768 695.33 187.985C691.491 193.202 685.852 196.807 679.507 198.102V428.612H532.629ZM616.26 94.0855C614.965 100.431 611.359 106.07 606.143 109.909C600.926 113.747 594.47 115.512 588.027 114.861C581.583 114.21 575.61 111.19 571.267 106.385C566.923 101.581 564.518 95.3352 564.518 88.8586C564.518 82.3819 566.923 76.136 571.267 71.3317C575.61 66.5274 581.583 63.507 588.027 62.856C594.47 62.2051 600.926 63.9699 606.143 67.8085C611.359 71.647 614.965 77.2858 616.26 83.6316H763.138V314.141C769.484 315.436 775.123 319.042 778.961 324.258C782.8 329.475 784.565 335.931 783.914 342.375C783.263 348.819 780.242 354.791 775.438 359.135C770.634 363.478 764.388 365.883 757.911 365.883C751.435 365.883 745.189 363.478 740.384 359.135C735.58 354.791 732.56 348.819 731.909 342.375C731.258 335.931 733.023 329.475 736.861 324.258C740.7 319.042 746.338 315.436 752.684 314.141V94.0855H616.26ZM1150.46 1505.37C1151.75 1499.02 1155.36 1493.38 1160.57 1489.55C1165.79 1485.71 1172.25 1483.94 1178.69 1484.59C1185.13 1485.24 1191.11 1488.26 1195.45 1493.07C1199.79 1497.87 1202.2 1504.12 1202.2 1510.6C1202.2 1517.07 1199.79 1523.32 1195.45 1528.12C1191.11 1532.93 1185.13 1535.95 1178.69 1536.6C1172.25 1537.25 1165.79 1535.48 1160.57 1531.65C1155.36 1527.81 1151.75 1522.17 1150.46 1515.82H512.243V1589H501.789V1505.37H1150.46ZM1264.93 783.523V836.316H1348.56V1014.03H1264.93V1338.11H1515.82V1589H1505.37V1348.56H1254.47V1003.58H1338.11V846.77H1254.47V783.523C1248.13 782.228 1242.49 778.623 1238.65 773.406C1234.81 768.19 1233.05 761.734 1233.7 755.29C1234.35 748.846 1237.37 742.873 1242.17 738.53C1246.98 734.186 1253.22 731.782 1259.7 731.782C1266.18 731.782 1272.42 734.186 1277.23 738.53C1282.03 742.873 1285.05 748.846 1285.7 755.29C1286.35 761.734 1284.59 768.19 1280.75 773.406C1276.91 778.623 1271.27 782.228 1264.93 783.523ZM281.734 94.0855C280.439 100.431 276.833 106.07 271.617 109.909C266.4 113.747 259.944 115.512 253.5 114.861C247.056 114.21 241.084 111.19 236.74 106.385C232.397 101.581 229.992 95.3352 229.992 88.8586C229.992 82.3819 232.397 76.136 236.74 71.3317C241.084 66.5274 247.056 63.507 253.5 62.856C259.944 62.2051 266.4 63.9699 271.617 67.8085C276.833 71.647 280.439 77.2858 281.734 83.6316H334.526V10.4539H250.895V0H344.98V94.0855H281.734ZM867.155 261.349C865.86 267.694 862.254 273.333 857.038 277.172C851.821 281.01 845.365 282.775 838.921 282.124C832.477 281.473 826.505 278.453 822.161 273.649C817.818 268.844 815.413 262.598 815.413 256.122C815.413 249.645 817.818 243.399 822.161 238.595C826.505 233.791 832.477 230.77 838.921 230.119C845.365 229.468 851.821 231.233 857.038 235.072C862.254 238.91 865.86 244.549 867.155 250.895H1003.58V0H1264.93V10.4539H1014.03V261.349H867.155ZM616.26 10.4539C615.574 13.8174 614.232 17.0127 612.31 19.8574C610.389 22.7022 607.926 25.1406 605.063 27.0335C602.199 28.9265 598.99 30.2368 595.62 30.8898C592.25 31.5428 588.784 31.5256 585.421 30.8391C582.058 30.1527 578.862 28.8106 576.018 26.8893C573.173 24.968 570.734 22.5052 568.841 19.6415C565.018 13.858 563.65 6.79277 565.036 0L575.856 0C575.024 2.36452 574.771 4.89398 575.118 7.37635C575.466 9.85873 576.403 12.2217 577.852 14.2671C579.301 16.3126 581.219 17.9809 583.445 19.1323C585.671 20.2837 588.141 20.8846 590.648 20.8846C593.155 20.8846 595.625 20.2837 597.851 19.1323C600.078 17.9809 601.995 16.3126 603.444 14.2671C604.893 12.2217 605.83 9.85873 606.178 7.37635C606.525 4.89398 606.272 2.36452 605.44 0L930.401 0V177.717H836.316V114.471C829.97 113.175 824.331 109.57 820.493 104.353C816.654 99.1369 814.889 92.6809 815.54 86.2371C816.191 79.7933 819.212 73.8207 824.016 69.4773C828.82 65.1338 835.066 62.729 841.543 62.729C848.019 62.729 854.265 65.1338 859.07 69.4773C863.874 73.8207 866.894 79.7933 867.545 86.2371C868.196 92.6809 866.431 99.1369 862.593 104.353C858.754 109.57 853.115 113.175 846.77 114.471V167.263H919.947V10.4539H616.26ZM616.26 512.243C614.965 518.589 611.359 524.228 606.143 528.066C600.926 531.905 594.47 533.67 588.027 533.019C581.583 532.368 575.61 529.348 571.267 524.543C566.923 519.739 564.518 513.493 564.518 507.016C564.518 500.54 566.923 494.294 571.267 489.49C575.61 484.685 581.583 481.665 588.027 481.014C594.47 480.363 600.926 482.128 606.143 485.966C611.359 489.805 614.965 495.444 616.26 501.789H716.095L883.359 334.526H1087.21V114.471C1080.86 113.175 1075.23 109.57 1071.39 104.353C1067.55 99.1369 1065.78 92.6809 1066.43 86.2371C1067.09 79.7933 1070.11 73.8207 1074.91 69.4773C1079.71 65.1338 1085.96 62.729 1092.44 62.729C1098.91 62.729 1105.16 65.1338 1109.96 69.4773C1114.77 73.8207 1117.79 79.7933 1118.44 86.2371C1119.09 92.6809 1117.33 99.1369 1113.49 104.353C1109.65 109.57 1104.01 113.175 1097.66 114.471V344.98H887.697L720.434 512.243H616.26ZM763.138 983.194C769.484 984.489 775.123 988.094 778.961 993.311C782.8 998.527 784.565 1004.98 783.914 1011.43C783.263 1017.87 780.242 1023.84 775.438 1028.19C770.634 1032.53 764.388 1034.94 757.911 1034.94C751.435 1034.94 745.189 1032.53 740.384 1028.19C735.58 1023.84 732.56 1017.87 731.909 1011.43C731.258 1004.98 733.023 998.527 736.861 993.311C740.7 988.094 746.338 984.489 752.684 983.194V583.278L917.804 418.158H1170.84V114.471C1164.5 113.175 1158.86 109.57 1155.02 104.353C1151.18 99.1369 1149.42 92.6809 1150.07 86.2371C1150.72 79.7933 1153.74 73.8207 1158.54 69.4773C1163.35 65.1338 1169.59 62.729 1176.07 62.729C1182.55 62.729 1188.79 65.1338 1193.6 69.4773C1198.4 73.8207 1201.42 79.7933 1202.07 86.2371C1202.72 92.6809 1200.96 99.1369 1197.12 104.353C1193.28 109.57 1187.64 113.175 1181.3 114.471V428.612H922.09L763.138 587.564V983.194ZM846.77 1150.46C853.115 1151.75 858.754 1155.36 862.593 1160.57C866.431 1165.79 868.196 1172.25 867.545 1178.69C866.894 1185.13 863.874 1191.11 859.07 1195.45C854.265 1199.79 848.019 1202.2 841.543 1202.2C835.066 1202.2 828.82 1199.79 824.016 1195.45C819.212 1191.11 816.191 1185.13 815.54 1178.69C814.889 1172.25 816.654 1165.79 820.493 1160.57C824.331 1155.36 829.97 1151.75 836.316 1150.46V630.321L964.847 501.789H1568.61C1569.64 496.767 1572.12 492.156 1575.74 488.532C1579.37 484.907 1583.98 482.429 1589 481.404V492.224C1585.94 493.302 1583.28 495.303 1581.41 497.953C1579.53 500.603 1578.52 503.769 1578.52 507.016C1578.52 510.263 1579.53 513.43 1581.41 516.08C1583.28 518.73 1585.94 520.731 1589 521.809V532.629C1583.98 531.604 1579.37 529.126 1575.74 525.501C1572.12 521.876 1569.64 517.266 1568.61 512.243H969.133L846.77 634.607V1150.46ZM94.0855 815.931C100.431 817.226 106.07 820.831 109.909 826.048C113.747 831.264 115.512 837.72 114.861 844.164C114.21 850.608 111.19 856.581 106.385 860.924C101.581 865.267 95.3352 867.672 88.8586 867.672C82.3819 867.672 76.136 865.267 71.3317 860.924C66.5274 856.581 63.507 850.608 62.856 844.164C62.2051 837.72 63.9699 831.264 67.8085 826.048C71.647 820.831 77.2858 817.226 83.6316 815.931V797.584L334.526 546.689V250.895H501.789V0H512.243V261.349H344.98V550.975L94.0855 801.87V815.931ZM261.349 281.734V509.16L10.4539 760.054V1087.21H146.878C148.173 1080.86 151.779 1075.23 156.995 1071.39C162.212 1067.55 168.668 1065.78 175.112 1066.43C181.555 1067.09 187.528 1070.11 191.871 1074.91C196.215 1079.71 198.62 1085.96 198.62 1092.44C198.62 1098.91 196.215 1105.16 191.871 1109.96C187.528 1114.77 181.555 1117.79 175.112 1118.44C168.668 1119.09 162.212 1117.33 156.995 1113.49C151.779 1109.65 148.173 1104.01 146.878 1097.66H0V755.768L250.895 504.873V281.734C244.549 280.439 238.91 276.833 235.072 271.617C231.233 266.4 229.468 259.944 230.119 253.5C230.77 247.056 233.791 241.084 238.595 236.74C243.399 232.397 249.645 229.992 256.122 229.992C262.598 229.992 268.844 232.397 273.649 236.74C278.453 241.084 281.473 247.056 282.124 253.5C282.775 259.944 281.01 266.4 277.172 271.617C273.333 276.833 267.694 280.439 261.349 281.734ZM177.717 365.365V467.344L0 645.061V630.321L167.263 463.058V365.365C160.917 364.07 155.279 360.465 151.44 355.248C147.602 350.032 145.837 343.576 146.488 337.132C147.139 330.688 150.159 324.715 154.963 320.372C159.768 316.029 166.014 313.624 172.49 313.624C178.967 313.624 185.213 316.029 190.017 320.372C194.821 324.715 197.842 330.688 198.493 337.132C199.144 343.576 197.379 350.032 193.54 355.248C189.702 360.465 184.063 364.07 177.717 365.365ZM63.2464 167.263C64.5417 160.917 68.1471 155.279 73.3637 151.44C78.5802 147.602 85.0362 145.837 91.48 146.488C97.9238 147.139 103.896 150.159 108.24 154.963C112.583 159.768 114.988 166.014 114.988 172.49C114.988 178.967 112.583 185.213 108.24 190.017C103.896 194.821 97.9238 197.842 91.48 198.493C85.0362 199.144 78.5802 197.379 73.3637 193.54C68.1471 189.702 64.5417 184.063 63.2464 177.717H49.1858L0 226.903V212.215L44.8997 167.263H63.2464ZM1452.58 261.349C1451.28 267.694 1447.68 273.333 1442.46 277.172C1437.24 281.01 1430.79 282.775 1424.34 282.124C1417.9 281.473 1411.93 278.453 1407.58 273.649C1403.24 268.844 1400.83 262.598 1400.83 256.122C1400.83 249.645 1403.24 243.399 1407.58 238.595C1411.93 233.791 1417.9 230.77 1424.34 230.119C1430.79 229.468 1437.24 231.233 1442.46 235.072C1447.68 238.91 1451.28 244.549 1452.58 250.895H1550.27L1589 212.163V226.903L1554.55 261.349H1452.58ZM1368.94 1097.66C1367.65 1104.01 1364.04 1109.65 1358.83 1113.49C1353.61 1117.33 1347.15 1119.09 1340.71 1118.44C1334.27 1117.79 1328.29 1114.77 1323.95 1109.96C1319.61 1105.16 1317.2 1098.91 1317.2 1092.44C1317.2 1085.96 1319.61 1079.71 1323.95 1074.91C1328.29 1070.11 1334.27 1067.09 1340.71 1066.43C1347.15 1065.78 1353.61 1067.55 1358.83 1071.39C1364.04 1075.23 1367.65 1080.86 1368.94 1087.21H1505.37V713.952L1589 630.321V645.061L1515.82 718.238V1097.66H1368.94ZM281.734 1264.93C280.439 1271.27 276.833 1276.91 271.617 1280.75C266.4 1284.59 259.944 1286.35 253.5 1285.7C247.056 1285.05 241.084 1282.03 236.74 1277.23C232.397 1272.42 229.992 1266.18 229.992 1259.7C229.992 1253.22 232.397 1246.98 236.74 1242.17C241.084 1237.37 247.056 1234.35 253.5 1233.7C259.944 1233.05 266.4 1234.81 271.617 1238.65C276.833 1242.49 280.439 1248.13 281.734 1254.47H334.526V1136.4L212.163 1014.03H114.471C113.175 1020.38 109.57 1026.02 104.353 1029.86C99.1369 1033.69 92.6809 1035.46 86.2371 1034.81C79.7933 1034.16 73.8207 1031.14 69.4773 1026.33C65.1338 1021.53 62.729 1015.28 62.729 1008.81C62.729 1002.33 65.1338 996.083 69.4773 991.279C73.8207 986.475 79.7933 983.454 86.2371 982.803C92.6809 982.152 99.1369 983.917 104.353 987.756C109.57 991.594 113.175 997.233 114.471 1003.58H216.449L344.98 1132.11V1264.93H281.734ZM1066.83 1338.11C1068.12 1331.76 1071.73 1326.12 1076.94 1322.28C1082.16 1318.44 1088.62 1316.68 1095.06 1317.33C1101.5 1317.98 1107.48 1321 1111.82 1325.81C1116.16 1330.61 1118.57 1336.86 1118.57 1343.33C1118.57 1349.81 1116.16 1356.05 1111.82 1360.86C1107.48 1365.66 1101.5 1368.68 1095.06 1369.33C1088.62 1369.99 1082.16 1368.22 1076.94 1364.38C1071.73 1360.54 1068.12 1354.9 1066.83 1348.56H501.789V1052.71L295.847 846.77H198.102C196.807 853.115 193.202 858.754 187.985 862.593C182.768 866.431 176.312 868.196 169.869 867.545C163.425 866.894 157.452 863.874 153.109 859.07C148.765 854.265 146.361 848.019 146.361 841.543C146.361 835.066 148.765 828.82 153.109 824.016C157.452 819.212 163.425 816.191 169.869 815.54C176.312 814.889 182.768 816.654 187.985 820.493C193.202 824.331 196.807 829.97 198.102 836.316H300.028L512.243 1048.53V1338.11H1066.83ZM281.734 1348.56C280.439 1354.9 276.833 1360.54 271.617 1364.38C266.4 1368.22 259.944 1369.99 253.5 1369.33C247.056 1368.68 241.084 1365.66 236.74 1360.86C232.397 1356.05 229.992 1349.81 229.992 1343.33C229.992 1336.86 232.397 1330.61 236.74 1325.81C241.084 1321 247.056 1317.98 253.5 1317.33C259.944 1316.68 266.4 1318.44 271.617 1322.28C276.833 1326.12 280.439 1331.76 281.734 1338.11H418.158V1094.58L253.979 930.401H114.471C113.175 936.747 109.57 942.386 104.353 946.224C99.1369 950.063 92.6809 951.828 86.2371 951.177C79.7933 950.526 73.8207 947.505 69.4773 942.701C65.1338 937.897 62.729 931.651 62.729 925.174C62.729 918.698 65.1338 912.452 69.4773 907.647C73.8207 902.843 79.7933 899.823 86.2371 899.172C92.6809 898.521 99.1369 900.286 104.353 904.124C109.57 907.963 113.175 913.602 114.471 919.947H258.265L428.612 1090.29V1348.56H281.734ZM177.717 208.034V216.449L49.1858 344.98H0V334.526H44.8997L167.263 212.163V0H177.717V208.034ZM10.4539 1568.61C15.4765 1569.64 20.087 1572.12 23.7115 1575.74C27.3361 1579.37 29.8148 1583.98 30.8391 1589H20.0193C19.3338 1587.06 18.272 1585.27 16.8946 1583.74C15.5172 1582.2 13.8513 1580.96 11.9921 1580.07C10.1329 1579.18 8.11679 1578.67 6.05911 1578.56C4.00142 1578.45 1.94249 1578.75 0 1579.43L0 1338.11H94.0855V1589H83.6316V1348.56H10.4539V1568.61ZM177.717 1259.7V1589H167.263V1264.93H0V1254.47H177.717V1259.7ZM88.8586 94.0855H0V83.6316H83.6316V0H94.0855V94.0855H88.8586ZM1515.82 83.6316H1589V94.0855H1505.37V0H1515.82V83.6316ZM1348.56 1510.6V1589H1338.11V1515.82H1264.93V1589H1254.47V1505.37H1348.56V1510.6ZM0 481.404C3.79539 480.649 7.71091 480.742 11.466 481.678C15.2211 482.613 18.7227 484.368 21.7201 486.816C24.7174 489.263 27.1362 492.344 28.8031 495.836C30.47 499.329 31.3438 503.147 31.3618 507.016C31.3626 510.892 30.5013 514.72 28.8403 518.222C27.1793 521.724 24.7602 524.812 21.7582 527.264C18.7562 529.716 15.2465 531.469 11.4833 532.397C7.72005 533.325 3.79759 533.404 0 532.629L0 521.809C2.36452 522.641 4.89398 522.893 7.37635 522.546C9.85873 522.199 12.2217 521.261 14.2671 519.813C16.3126 518.364 17.9809 516.446 19.1323 514.219C20.2837 511.993 20.8846 509.523 20.8846 507.016C20.8846 504.51 20.2837 502.04 19.1323 499.813C17.9809 497.587 16.3126 495.669 14.2671 494.22C12.2217 492.771 9.85873 491.834 7.37635 491.487C4.89398 491.139 2.36452 491.392 0 492.224L0 481.404ZM418.158 1421.74H428.612V1589H418.158V1421.74ZM616.26 1589H605.44C604.363 1585.94 602.361 1583.28 599.711 1581.41C597.062 1579.53 593.895 1578.52 590.648 1578.52C587.401 1578.52 584.234 1579.53 581.585 1581.41C578.935 1583.28 576.933 1585.94 575.856 1589H565.036C566.235 1583.09 569.441 1577.78 574.109 1573.97C578.776 1570.15 584.619 1568.07 590.648 1568.07C596.677 1568.07 602.52 1570.15 607.188 1573.97C611.855 1577.78 615.061 1583.09 616.26 1589ZM30.8391 0C31.6772 4.2296 31.4601 8.60057 30.2069 12.7263C28.9537 16.852 26.7032 20.6053 23.6542 23.6542C20.6053 26.7032 16.852 28.9537 12.7263 30.2069C8.60057 31.4601 4.2296 31.6772 0 30.8391L0 20.0193C2.79234 21.0093 5.808 21.1879 8.6977 20.5346C11.5874 19.8813 14.2329 18.4227 16.3278 16.3278C18.4227 14.2329 19.8813 11.5874 20.5346 8.6977C21.1879 5.808 21.0093 2.79234 20.0193 0L30.8391 0ZM1568.61 0H1579.43C1578.75 1.94249 1578.45 4.00142 1578.56 6.05911C1578.67 8.11679 1579.18 10.1329 1580.07 11.9921C1580.96 13.8513 1582.2 15.5172 1583.74 16.8946C1585.27 18.272 1587.06 19.3338 1589 20.0193V30.8391C1585.64 30.1534 1582.44 28.8116 1579.6 26.8905C1576.75 24.9693 1574.31 22.5065 1572.42 19.6427C1570.53 16.7788 1569.22 13.5701 1568.56 10.1997C1567.91 6.8294 1567.93 3.36349 1568.61 0ZM1589 1568.61V1579.43C1586.79 1580.21 1584.79 1581.48 1583.13 1583.13C1581.48 1584.79 1580.21 1586.79 1579.43 1589H1568.61C1569.64 1583.98 1572.12 1579.37 1575.74 1575.74C1579.37 1572.12 1583.98 1569.64 1589 1568.61ZM507.016 522.697C509.076 522.697 511.115 522.292 513.017 521.504C514.92 520.716 516.648 519.561 518.105 518.105C519.561 516.648 520.716 514.92 521.504 513.017C522.292 511.115 522.697 509.076 522.697 507.016C522.697 504.957 522.292 502.918 521.504 501.016C520.716 499.113 519.561 497.384 518.105 495.928C516.648 494.472 514.92 493.317 513.017 492.529C511.115 491.741 509.076 491.336 507.016 491.336C502.858 491.336 498.869 492.988 495.928 495.928C492.988 498.869 491.336 502.858 491.336 507.016C491.336 511.175 492.988 515.164 495.928 518.105C498.869 521.045 502.858 522.697 507.016 522.697ZM507.016 439.066C511.175 439.066 515.164 437.414 518.105 434.473C521.045 431.532 522.697 427.544 522.697 423.385C522.697 419.226 521.045 415.238 518.105 412.297C515.164 409.356 511.175 407.704 507.016 407.704C502.858 407.704 498.869 409.356 495.928 412.297C492.988 415.238 491.336 419.226 491.336 423.385C491.336 427.544 492.988 431.532 495.928 434.473C498.869 437.414 502.858 439.066 507.016 439.066ZM590.648 522.697C592.707 522.697 594.746 522.292 596.649 521.504C598.551 520.716 600.28 519.561 601.736 518.105C603.192 516.648 604.347 514.92 605.135 513.017C605.923 511.115 606.329 509.076 606.329 507.016C606.329 504.957 605.923 502.918 605.135 501.016C604.347 499.113 603.192 497.384 601.736 495.928C600.28 494.472 598.551 493.317 596.649 492.529C594.746 491.741 592.707 491.336 590.648 491.336C586.489 491.336 582.501 492.988 579.56 495.928C576.619 498.869 574.967 502.858 574.967 507.016C574.967 511.175 576.619 515.164 579.56 518.105C582.501 521.045 586.489 522.697 590.648 522.697ZM674.28 606.329C678.438 606.329 682.427 604.677 685.368 601.736C688.308 598.795 689.961 594.807 689.961 590.648C689.961 586.489 688.308 582.501 685.368 579.56C682.427 576.619 678.438 574.967 674.28 574.967C670.121 574.967 666.132 576.619 663.191 579.56C660.251 582.501 658.599 586.489 658.599 590.648C658.599 594.807 660.251 598.795 663.191 601.736C666.132 604.677 670.121 606.329 674.28 606.329ZM674.28 689.961C678.438 689.961 682.427 688.308 685.368 685.368C688.308 682.427 689.961 678.438 689.961 674.28C689.961 670.121 688.308 666.132 685.368 663.191C682.427 660.251 678.438 658.599 674.28 658.599C670.121 658.599 666.132 660.251 663.191 663.191C660.251 666.132 658.599 670.121 658.599 674.28C658.599 678.438 660.251 682.427 663.191 685.368C666.132 688.308 670.121 689.961 674.28 689.961ZM423.385 857.224C427.544 857.224 431.532 855.572 434.473 852.631C437.414 849.69 439.066 845.702 439.066 841.543C439.066 837.384 437.414 833.395 434.473 830.455C431.532 827.514 427.544 825.862 423.385 825.862C419.226 825.862 415.238 827.514 412.297 830.455C409.356 833.395 407.704 837.384 407.704 841.543C407.704 845.702 409.356 849.69 412.297 852.631C415.238 855.572 419.226 857.224 423.385 857.224ZM507.016 940.855C511.175 940.855 515.164 939.203 518.105 936.262C521.045 933.322 522.697 929.333 522.697 925.174C522.697 921.015 521.045 917.027 518.105 914.086C515.164 911.145 511.175 909.493 507.016 909.493C502.858 909.493 498.869 911.145 495.928 914.086C492.988 917.027 491.336 921.015 491.336 925.174C491.336 929.333 492.988 933.322 495.928 936.262C498.869 939.203 502.858 940.855 507.016 940.855ZM674.28 1191.75C678.438 1191.75 682.427 1190.1 685.368 1187.16C688.308 1184.22 689.961 1180.23 689.961 1176.07C689.961 1171.91 688.308 1167.92 685.368 1164.98C682.427 1162.04 678.438 1160.39 674.28 1160.39C670.121 1160.39 666.132 1162.04 663.191 1164.98C660.251 1167.92 658.599 1171.91 658.599 1176.07C658.599 1180.23 660.251 1184.22 663.191 1187.16C666.132 1190.1 670.121 1191.75 674.28 1191.75ZM590.648 1275.38C594.807 1275.38 598.795 1273.73 601.736 1270.79C604.677 1267.85 606.329 1263.86 606.329 1259.7C606.329 1255.54 604.677 1251.55 601.736 1248.61C598.795 1245.67 594.807 1244.02 590.648 1244.02C586.489 1244.02 582.501 1245.67 579.56 1248.61C576.619 1251.55 574.967 1255.54 574.967 1259.7C574.967 1263.86 576.619 1267.85 579.56 1270.79C582.501 1273.73 586.489 1275.38 590.648 1275.38ZM757.911 1191.75C762.07 1191.75 766.059 1190.1 768.999 1187.16C771.94 1184.22 773.592 1180.23 773.592 1176.07C773.592 1171.91 771.94 1167.92 768.999 1164.98C766.059 1162.04 762.07 1160.39 757.911 1160.39C753.752 1160.39 749.764 1162.04 746.823 1164.98C743.882 1167.92 742.23 1171.91 742.23 1176.07C742.23 1180.23 743.882 1184.22 746.823 1187.16C749.764 1190.1 753.752 1191.75 757.911 1191.75ZM757.911 1024.49C762.07 1024.49 766.059 1022.83 768.999 1019.89C771.94 1016.95 773.592 1012.96 773.592 1008.81C773.592 1004.65 771.94 1000.66 768.999 997.718C766.059 994.777 762.07 993.125 757.911 993.125C753.752 993.125 749.764 994.777 746.823 997.718C743.882 1000.66 742.23 1004.65 742.23 1008.81C742.23 1012.96 743.882 1016.95 746.823 1019.89C749.764 1022.83 753.752 1024.49 757.911 1024.49ZM841.543 1191.75C845.702 1191.75 849.69 1190.1 852.631 1187.16C855.572 1184.22 857.224 1180.23 857.224 1176.07C857.224 1171.91 855.572 1167.92 852.631 1164.98C849.69 1162.04 845.702 1160.39 841.543 1160.39C837.384 1160.39 833.395 1162.04 830.455 1164.98C827.514 1167.92 825.862 1171.91 825.862 1176.07C825.862 1180.23 827.514 1184.22 830.455 1187.16C833.395 1190.1 837.384 1191.75 841.543 1191.75ZM1008.81 1275.38C1012.96 1275.38 1016.95 1273.73 1019.89 1270.79C1022.83 1267.85 1024.49 1263.86 1024.49 1259.7C1024.49 1255.54 1022.83 1251.55 1019.89 1248.61C1016.95 1245.67 1012.96 1244.02 1008.81 1244.02C1004.65 1244.02 1000.66 1245.67 997.718 1248.61C994.777 1251.55 993.125 1255.54 993.125 1259.7C993.125 1263.86 994.777 1267.85 997.718 1270.79C1000.66 1273.73 1004.65 1275.38 1008.81 1275.38ZM1008.81 1191.75C1012.96 1191.75 1016.95 1190.1 1019.89 1187.16C1022.83 1184.22 1024.49 1180.23 1024.49 1176.07C1024.49 1171.91 1022.83 1167.92 1019.89 1164.98C1016.95 1162.04 1012.96 1160.39 1008.81 1160.39C1004.65 1160.39 1000.66 1162.04 997.718 1164.98C994.777 1167.92 993.125 1171.91 993.125 1176.07C993.125 1180.23 994.777 1184.22 997.718 1187.16C1000.66 1190.1 1004.65 1191.75 1008.81 1191.75ZM925.174 857.224C929.333 857.224 933.322 855.572 936.262 852.631C939.203 849.69 940.855 845.702 940.855 841.543C940.855 837.384 939.203 833.395 936.262 830.455C933.322 827.514 929.333 825.862 925.174 825.862C921.015 825.862 917.027 827.514 914.086 830.455C911.145 833.395 909.493 837.384 909.493 841.543C909.493 845.702 911.145 849.69 914.086 852.631C917.027 855.572 921.015 857.224 925.174 857.224ZM1008.81 857.224C1012.96 857.224 1016.95 855.572 1019.89 852.631C1022.83 849.69 1024.49 845.702 1024.49 841.543C1024.49 837.384 1022.83 833.395 1019.89 830.455C1016.95 827.514 1012.96 825.862 1008.81 825.862C1004.65 825.862 1000.66 827.514 997.718 830.455C994.777 833.395 993.125 837.384 993.125 841.543C993.125 845.702 994.777 849.69 997.718 852.631C1000.66 855.572 1004.65 857.224 1008.81 857.224ZM1092.44 1359.01C1096.6 1359.01 1100.58 1357.36 1103.53 1354.42C1106.47 1351.48 1108.12 1347.49 1108.12 1343.33C1108.12 1339.17 1106.47 1335.18 1103.53 1332.24C1100.58 1329.3 1096.6 1327.65 1092.44 1327.65C1088.28 1327.65 1084.29 1329.3 1081.35 1332.24C1078.41 1335.18 1076.76 1339.17 1076.76 1343.33C1076.76 1347.49 1078.41 1351.48 1081.35 1354.42C1084.29 1357.36 1088.28 1359.01 1092.44 1359.01ZM1092.44 1442.64C1096.6 1442.64 1100.58 1440.99 1103.53 1438.05C1106.47 1435.11 1108.12 1431.12 1108.12 1426.96C1108.12 1422.8 1106.47 1418.82 1103.53 1415.88C1100.58 1412.94 1096.6 1411.28 1092.44 1411.28C1088.28 1411.28 1084.29 1412.94 1081.35 1415.88C1078.41 1418.82 1076.76 1422.8 1076.76 1426.96C1076.76 1431.12 1078.41 1435.11 1081.35 1438.05C1084.29 1440.99 1088.28 1442.64 1092.44 1442.64ZM1176.07 1526.28C1180.23 1526.28 1184.22 1524.62 1187.16 1521.68C1190.1 1518.74 1191.75 1514.75 1191.75 1510.6C1191.75 1506.44 1190.1 1502.45 1187.16 1499.51C1184.22 1496.57 1180.23 1494.91 1176.07 1494.91C1171.91 1494.91 1167.92 1496.57 1164.98 1499.51C1162.04 1502.45 1160.39 1506.44 1160.39 1510.6C1160.39 1514.75 1162.04 1518.74 1164.98 1521.68C1167.92 1524.62 1171.91 1526.28 1176.07 1526.28ZM1259.7 773.592C1263.86 773.592 1267.85 771.94 1270.79 768.999C1273.73 766.059 1275.38 762.07 1275.38 757.911C1275.38 753.752 1273.73 749.764 1270.79 746.823C1267.85 743.882 1263.86 742.23 1259.7 742.23C1255.54 742.23 1251.55 743.882 1248.61 746.823C1245.67 749.764 1244.02 753.752 1244.02 757.911C1244.02 762.07 1245.67 766.059 1248.61 768.999C1251.55 771.94 1255.54 773.592 1259.7 773.592ZM1259.7 940.855C1263.86 940.855 1267.85 939.203 1270.79 936.262C1273.73 933.322 1275.38 929.333 1275.38 925.174C1275.38 921.015 1273.73 917.027 1270.79 914.086C1267.85 911.145 1263.86 909.493 1259.7 909.493C1255.54 909.493 1251.55 911.145 1248.61 914.086C1245.67 917.027 1244.02 921.015 1244.02 925.174C1244.02 929.333 1245.67 933.322 1248.61 936.262C1251.55 939.203 1255.54 940.855 1259.7 940.855ZM1343.33 773.592C1347.49 773.592 1351.48 771.94 1354.42 768.999C1357.36 766.059 1359.01 762.07 1359.01 757.911C1359.01 753.752 1357.36 749.764 1354.42 746.823C1351.48 743.882 1347.49 742.23 1343.33 742.23C1339.17 742.23 1335.18 743.882 1332.24 746.823C1329.3 749.764 1327.65 753.752 1327.65 757.911C1327.65 762.07 1329.3 766.059 1332.24 768.999C1335.18 771.94 1339.17 773.592 1343.33 773.592ZM1426.96 689.961C1431.12 689.961 1435.11 688.308 1438.05 685.368C1440.99 682.427 1442.64 678.438 1442.64 674.28C1442.64 670.121 1440.99 666.132 1438.05 663.191C1435.11 660.251 1431.12 658.599 1426.96 658.599C1422.8 658.599 1418.82 660.251 1415.88 663.191C1412.94 666.132 1411.28 670.121 1411.28 674.28C1411.28 678.438 1412.94 682.427 1415.88 685.368C1418.82 688.308 1422.8 689.961 1426.96 689.961ZM925.174 689.961C929.333 689.961 933.322 688.308 936.262 685.368C939.203 682.427 940.855 678.438 940.855 674.28C940.855 670.121 939.203 666.132 936.262 663.191C933.322 660.251 929.333 658.599 925.174 658.599C921.015 658.599 917.027 660.251 914.086 663.191C911.145 666.132 909.493 670.121 909.493 674.28C909.493 678.438 911.145 682.427 914.086 685.368C917.027 688.308 921.015 689.961 925.174 689.961ZM925.174 773.592C929.333 773.592 933.322 771.94 936.262 768.999C939.203 766.059 940.855 762.07 940.855 757.911C940.855 753.752 939.203 749.764 936.262 746.823C933.322 743.882 929.333 742.23 925.174 742.23C921.015 742.23 917.027 743.882 914.086 746.823C911.145 749.764 909.493 753.752 909.493 757.911C909.493 762.07 911.145 766.059 914.086 768.999C917.027 771.94 921.015 773.592 925.174 773.592ZM1008.81 606.329C1012.96 606.329 1016.95 604.677 1019.89 601.736C1022.83 598.795 1024.49 594.807 1024.49 590.648C1024.49 586.489 1022.83 582.501 1019.89 579.56C1016.95 576.619 1012.96 574.967 1008.81 574.967C1004.65 574.967 1000.66 576.619 997.718 579.56C994.777 582.501 993.125 586.489 993.125 590.648C993.125 594.807 994.777 598.795 997.718 601.736C1000.66 604.677 1004.65 606.329 1008.81 606.329ZM1510.6 606.329C1514.75 606.329 1518.74 604.677 1521.68 601.736C1524.62 598.795 1526.28 594.807 1526.28 590.648C1526.28 586.489 1524.62 582.501 1521.68 579.56C1518.74 576.619 1514.75 574.967 1510.6 574.967C1506.44 574.967 1502.45 576.619 1499.51 579.56C1496.57 582.501 1494.91 586.489 1494.91 590.648C1494.91 594.807 1496.57 598.795 1499.51 601.736C1502.45 604.677 1506.44 606.329 1510.6 606.329ZM1426.96 271.803C1431.12 271.803 1435.11 270.151 1438.05 267.21C1440.99 264.269 1442.64 260.281 1442.64 256.122C1442.64 251.963 1440.99 247.974 1438.05 245.034C1435.11 242.093 1431.12 240.441 1426.96 240.441C1422.8 240.441 1418.82 242.093 1415.88 245.034C1412.94 247.974 1411.28 251.963 1411.28 256.122C1411.28 260.281 1412.94 264.269 1415.88 267.21C1418.82 270.151 1422.8 271.803 1426.96 271.803ZM1510.6 188.171C1514.75 188.171 1518.74 186.519 1521.68 183.578C1524.62 180.637 1526.28 176.649 1526.28 172.49C1526.28 168.331 1524.62 164.343 1521.68 161.402C1518.74 158.461 1514.75 156.809 1510.6 156.809C1506.44 156.809 1502.45 158.461 1499.51 161.402C1496.57 164.343 1494.91 168.331 1494.91 172.49C1494.91 176.649 1496.57 180.637 1499.51 183.578C1502.45 186.519 1506.44 188.171 1510.6 188.171ZM1343.33 188.171C1347.49 188.171 1351.48 186.519 1354.42 183.578C1357.36 180.637 1359.01 176.649 1359.01 172.49C1359.01 168.331 1357.36 164.343 1354.42 161.402C1351.48 158.461 1347.49 156.809 1343.33 156.809C1339.17 156.809 1335.18 158.461 1332.24 161.402C1329.3 164.343 1327.65 168.331 1327.65 172.49C1327.65 176.649 1329.3 180.637 1332.24 183.578C1335.18 186.519 1339.17 188.171 1343.33 188.171ZM1343.33 104.539C1347.49 104.539 1351.48 102.887 1354.42 99.9466C1357.36 97.0059 1359.01 93.0174 1359.01 88.8586C1359.01 84.6997 1357.36 80.7112 1354.42 77.7705C1351.48 74.8297 1347.49 73.1776 1343.33 73.1776C1339.17 73.1776 1335.18 74.8297 1332.24 77.7705C1329.3 80.7112 1327.65 84.6997 1327.65 88.8586C1327.65 93.0174 1329.3 97.0059 1332.24 99.9466C1335.18 102.887 1339.17 104.539 1343.33 104.539ZM1259.7 104.539C1263.86 104.539 1267.85 102.887 1270.79 99.9466C1273.73 97.0059 1275.38 93.0174 1275.38 88.8586C1275.38 84.6997 1273.73 80.7112 1270.79 77.7705C1267.85 74.8297 1263.86 73.1776 1259.7 73.1776C1255.54 73.1776 1251.55 74.8297 1248.61 77.7705C1245.67 80.7112 1244.02 84.6997 1244.02 88.8586C1244.02 93.0174 1245.67 97.0059 1248.61 99.9466C1251.55 102.887 1255.54 104.539 1259.7 104.539ZM1176.07 104.539C1180.23 104.539 1184.22 102.887 1187.16 99.9466C1190.1 97.0059 1191.75 93.0174 1191.75 88.8586C1191.75 84.6997 1190.1 80.7112 1187.16 77.7705C1184.22 74.8297 1180.23 73.1776 1176.07 73.1776C1171.91 73.1776 1167.92 74.8297 1164.98 77.7705C1162.04 80.7112 1160.39 84.6997 1160.39 88.8586C1160.39 93.0174 1162.04 97.0059 1164.98 99.9466C1167.92 102.887 1171.91 104.539 1176.07 104.539ZM1092.44 104.539C1096.6 104.539 1100.58 102.887 1103.53 99.9466C1106.47 97.0059 1108.12 93.0174 1108.12 88.8586C1108.12 84.6997 1106.47 80.7112 1103.53 77.7705C1100.58 74.8297 1096.6 73.1776 1092.44 73.1776C1088.28 73.1776 1084.29 74.8297 1081.35 77.7705C1078.41 80.7112 1076.76 84.6997 1076.76 88.8586C1076.76 93.0174 1078.41 97.0059 1081.35 99.9466C1084.29 102.887 1088.28 104.539 1092.44 104.539ZM256.122 188.171C260.281 188.171 264.269 186.519 267.21 183.578C270.151 180.637 271.803 176.649 271.803 172.49C271.803 168.331 270.151 164.343 267.21 161.402C264.269 158.461 260.281 156.809 256.122 156.809C251.963 156.809 247.974 158.461 245.034 161.402C242.093 164.343 240.441 168.331 240.441 172.49C240.441 176.649 242.093 180.637 245.034 183.578C247.974 186.519 251.963 188.171 256.122 188.171ZM88.8586 188.171C93.0174 188.171 97.0059 186.519 99.9466 183.578C102.887 180.637 104.539 176.649 104.539 172.49C104.539 168.331 102.887 164.343 99.9466 161.402C97.0059 158.461 93.0174 156.809 88.8586 156.809C84.6997 156.809 80.7112 158.461 77.7705 161.402C74.8297 164.343 73.1776 168.331 73.1776 172.49C73.1776 176.649 74.8297 180.637 77.7705 183.578C80.7112 186.519 84.6997 188.171 88.8586 188.171ZM256.122 271.803C260.281 271.803 264.269 270.151 267.21 267.21C270.151 264.269 271.803 260.281 271.803 256.122C271.803 251.963 270.151 247.974 267.21 245.034C264.269 242.093 260.281 240.441 256.122 240.441C251.963 240.441 247.974 242.093 245.034 245.034C242.093 247.974 240.441 251.963 240.441 256.122C240.441 260.281 242.093 264.269 245.034 267.21C247.974 270.151 251.963 271.803 256.122 271.803ZM172.49 355.434C176.649 355.434 180.637 353.782 183.578 350.841C186.519 347.901 188.171 343.912 188.171 339.753C188.171 335.594 186.519 331.606 183.578 328.665C180.637 325.724 176.649 324.072 172.49 324.072C168.331 324.072 164.343 325.724 161.402 328.665C158.461 331.606 156.809 335.594 156.809 339.753C156.809 343.912 158.461 347.901 161.402 350.841C164.343 353.782 168.331 355.434 172.49 355.434ZM256.122 104.539C260.281 104.539 264.269 102.887 267.21 99.9466C270.151 97.0059 271.803 93.0174 271.803 88.8586C271.803 84.6997 270.151 80.7112 267.21 77.7705C264.269 74.8297 260.281 73.1776 256.122 73.1776C251.963 73.1776 247.974 74.8297 245.034 77.7705C242.093 80.7112 240.441 84.6997 240.441 88.8586C240.441 93.0174 242.093 97.0059 245.034 99.9466C247.974 102.887 251.963 104.539 256.122 104.539ZM256.122 1359.01C260.281 1359.01 264.269 1357.36 267.21 1354.42C270.151 1351.48 271.803 1347.49 271.803 1343.33C271.803 1339.17 270.151 1335.18 267.21 1332.24C264.269 1329.3 260.281 1327.65 256.122 1327.65C251.963 1327.65 247.974 1329.3 245.034 1332.24C242.093 1335.18 240.441 1339.17 240.441 1343.33C240.441 1347.49 242.093 1351.48 245.034 1354.42C247.974 1357.36 251.963 1359.01 256.122 1359.01ZM339.753 1526.28C343.912 1526.28 347.901 1524.62 350.841 1521.68C353.782 1518.74 355.434 1514.75 355.434 1510.6C355.434 1506.44 353.782 1502.45 350.841 1499.51C347.901 1496.57 343.912 1494.91 339.753 1494.91C335.594 1494.91 331.606 1496.57 328.665 1499.51C325.724 1502.45 324.072 1506.44 324.072 1510.6C324.072 1514.75 325.724 1518.74 328.665 1521.68C331.606 1524.62 335.594 1526.28 339.753 1526.28ZM256.122 1191.75C260.281 1191.75 264.269 1190.1 267.21 1187.16C270.151 1184.22 271.803 1180.23 271.803 1176.07C271.803 1171.91 270.151 1167.92 267.21 1164.98C264.269 1162.04 260.281 1160.39 256.122 1160.39C251.963 1160.39 247.974 1162.04 245.034 1164.98C242.093 1167.92 240.441 1171.91 240.441 1176.07C240.441 1180.23 242.093 1184.22 245.034 1187.16C247.974 1190.1 251.963 1191.75 256.122 1191.75ZM256.122 1275.38C260.281 1275.38 264.269 1273.73 267.21 1270.79C270.151 1267.85 271.803 1263.86 271.803 1259.7C271.803 1255.54 270.151 1251.55 267.21 1248.61C264.269 1245.67 260.281 1244.02 256.122 1244.02C251.963 1244.02 247.974 1245.67 245.034 1248.61C242.093 1251.55 240.441 1255.54 240.441 1259.7C240.441 1263.86 242.093 1267.85 245.034 1270.79C247.974 1273.73 251.963 1275.38 256.122 1275.38ZM172.49 1108.12C176.649 1108.12 180.637 1106.47 183.578 1103.53C186.519 1100.58 188.171 1096.6 188.171 1092.44C188.171 1088.28 186.519 1084.29 183.578 1081.35C180.637 1078.41 176.649 1076.76 172.49 1076.76C168.331 1076.76 164.343 1078.41 161.402 1081.35C158.461 1084.29 156.809 1088.28 156.809 1092.44C156.809 1096.6 158.461 1100.58 161.402 1103.53C164.343 1106.47 168.331 1108.12 172.49 1108.12ZM590.648 188.171C594.807 188.171 598.795 186.519 601.736 183.578C604.677 180.637 606.329 176.649 606.329 172.49C606.329 168.331 604.677 164.343 601.736 161.402C598.795 158.461 594.807 156.809 590.648 156.809C586.489 156.809 582.501 158.461 579.56 161.402C576.619 164.343 574.967 168.331 574.967 172.49C574.967 176.649 576.619 180.637 579.56 183.578C582.501 186.519 586.489 188.171 590.648 188.171ZM674.28 188.171C678.438 188.171 682.427 186.519 685.368 183.578C688.308 180.637 689.961 176.649 689.961 172.49C689.961 168.331 688.308 164.343 685.368 161.402C682.427 158.461 678.438 156.809 674.28 156.809C670.121 156.809 666.132 158.461 663.191 161.402C660.251 164.343 658.599 168.331 658.599 172.49C658.599 176.649 660.251 180.637 663.191 183.578C666.132 186.519 670.121 188.171 674.28 188.171ZM590.648 104.539C594.807 104.539 598.795 102.887 601.736 99.9466C604.677 97.0059 606.329 93.0174 606.329 88.8586C606.329 84.6997 604.677 80.7112 601.736 77.7705C598.795 74.8297 594.807 73.1776 590.648 73.1776C586.489 73.1776 582.501 74.8297 579.56 77.7705C576.619 80.7112 574.967 84.6997 574.967 88.8586C574.967 93.0174 576.619 97.0059 579.56 99.9466C582.501 102.887 586.489 104.539 590.648 104.539ZM757.911 355.434C762.07 355.434 766.059 353.782 768.999 350.841C771.94 347.901 773.592 343.912 773.592 339.753C773.592 335.594 771.94 331.606 768.999 328.665C766.059 325.724 762.07 324.072 757.911 324.072C753.752 324.072 749.764 325.724 746.823 328.665C743.882 331.606 742.23 335.594 742.23 339.753C742.23 343.912 743.882 347.901 746.823 350.841C749.764 353.782 753.752 355.434 757.911 355.434ZM841.543 271.803C845.702 271.803 849.69 270.151 852.631 267.21C855.572 264.269 857.224 260.281 857.224 256.122C857.224 251.963 855.572 247.974 852.631 245.034C849.69 242.093 845.702 240.441 841.543 240.441C837.384 240.441 833.395 242.093 830.455 245.034C827.514 247.974 825.862 251.963 825.862 256.122C825.862 260.281 827.514 264.269 830.455 267.21C833.395 270.151 837.384 271.803 841.543 271.803ZM841.543 104.539C845.702 104.539 849.69 102.887 852.631 99.9466C855.572 97.0059 857.224 93.0174 857.224 88.8586C857.224 84.6997 855.572 80.7112 852.631 77.7705C849.69 74.8297 845.702 73.1776 841.543 73.1776C837.384 73.1776 833.395 74.8297 830.455 77.7705C827.514 80.7112 825.862 84.6997 825.862 88.8586C825.862 93.0174 827.514 97.0059 830.455 99.9466C833.395 102.887 837.384 104.539 841.543 104.539ZM1426.96 1024.49C1431.12 1024.49 1435.11 1022.83 1438.05 1019.89C1440.99 1016.95 1442.64 1012.96 1442.64 1008.81C1442.64 1004.65 1440.99 1000.66 1438.05 997.718C1435.11 994.777 1431.12 993.125 1426.96 993.125C1422.8 993.125 1418.82 994.777 1415.88 997.718C1412.94 1000.66 1411.28 1004.65 1411.28 1008.81C1411.28 1012.96 1412.94 1016.95 1415.88 1019.89C1418.82 1022.83 1422.8 1024.49 1426.96 1024.49ZM1343.33 1108.12C1347.49 1108.12 1351.48 1106.47 1354.42 1103.53C1357.36 1100.58 1359.01 1096.6 1359.01 1092.44C1359.01 1088.28 1357.36 1084.29 1354.42 1081.35C1351.48 1078.41 1347.49 1076.76 1343.33 1076.76C1339.17 1076.76 1335.18 1078.41 1332.24 1081.35C1329.3 1084.29 1327.65 1088.28 1327.65 1092.44C1327.65 1096.6 1329.3 1100.58 1332.24 1103.53C1335.18 1106.47 1339.17 1108.12 1343.33 1108.12ZM1343.33 1191.75C1347.49 1191.75 1351.48 1190.1 1354.42 1187.16C1357.36 1184.22 1359.01 1180.23 1359.01 1176.07C1359.01 1171.91 1357.36 1167.92 1354.42 1164.98C1351.48 1162.04 1347.49 1160.39 1343.33 1160.39C1339.17 1160.39 1335.18 1162.04 1332.24 1164.98C1329.3 1167.92 1327.65 1171.91 1327.65 1176.07C1327.65 1180.23 1329.3 1184.22 1332.24 1187.16C1335.18 1190.1 1339.17 1191.75 1343.33 1191.75ZM1343.33 1275.38C1347.49 1275.38 1351.48 1273.73 1354.42 1270.79C1357.36 1267.85 1359.01 1263.86 1359.01 1259.7C1359.01 1255.54 1357.36 1251.55 1354.42 1248.61C1351.48 1245.67 1347.49 1244.02 1343.33 1244.02C1339.17 1244.02 1335.18 1245.67 1332.24 1248.61C1329.3 1251.55 1327.65 1255.54 1327.65 1259.7C1327.65 1263.86 1329.3 1267.85 1332.24 1270.79C1335.18 1273.73 1339.17 1275.38 1343.33 1275.38ZM88.8586 940.855C93.0174 940.855 97.0059 939.203 99.9466 936.262C102.887 933.322 104.539 929.333 104.539 925.174C104.539 921.015 102.887 917.027 99.9466 914.086C97.0059 911.145 93.0174 909.493 88.8586 909.493C84.6997 909.493 80.7112 911.145 77.7705 914.086C74.8297 917.027 73.1776 921.015 73.1776 925.174C73.1776 929.333 74.8297 933.322 77.7705 936.262C80.7112 939.203 84.6997 940.855 88.8586 940.855ZM88.8586 1024.49C93.0174 1024.49 97.0059 1022.83 99.9466 1019.89C102.887 1016.95 104.539 1012.96 104.539 1008.81C104.539 1004.65 102.887 1000.66 99.9466 997.718C97.0059 994.777 93.0174 993.125 88.8586 993.125C84.6997 993.125 80.7112 994.777 77.7705 997.718C74.8297 1000.66 73.1776 1004.65 73.1776 1008.81C73.1776 1012.96 74.8297 1016.95 77.7705 1019.89C80.7112 1022.83 84.6997 1024.49 88.8586 1024.49ZM88.8586 857.224C93.0174 857.224 97.0059 855.572 99.9466 852.631C102.887 849.69 104.539 845.702 104.539 841.543C104.539 837.384 102.887 833.395 99.9466 830.455C97.0059 827.514 93.0174 825.862 88.8586 825.862C84.6997 825.862 80.7112 827.514 77.7705 830.455C74.8297 833.395 73.1776 837.384 73.1776 841.543C73.1776 845.702 74.8297 849.69 77.7705 852.631C80.7112 855.572 84.6997 857.224 88.8586 857.224ZM172.49 857.224C176.649 857.224 180.637 855.572 183.578 852.631C186.519 849.69 188.171 845.702 188.171 841.543C188.171 837.384 186.519 833.395 183.578 830.455C180.637 827.514 176.649 825.862 172.49 825.862C168.331 825.862 164.343 827.514 161.402 830.455C158.461 833.395 156.809 837.384 156.809 841.543C156.809 845.702 158.461 849.69 161.402 852.631C164.343 855.572 168.331 857.224 172.49 857.224ZM88.8586 439.066C93.0174 439.066 97.0059 437.414 99.9466 434.473C102.887 431.532 104.539 427.544 104.539 423.385C104.539 419.226 102.887 415.238 99.9466 412.297C97.0059 409.356 93.0174 407.704 88.8586 407.704C84.6997 407.704 80.7112 409.356 77.7705 412.297C74.8297 415.238 73.1776 419.226 73.1776 423.385C73.1776 427.544 74.8297 431.532 77.7705 434.473C80.7112 437.414 84.6997 439.066 88.8586 439.066ZM256.122 773.592C260.281 773.592 264.269 771.94 267.21 768.999C270.151 766.059 271.803 762.07 271.803 757.911C271.803 753.752 270.151 749.764 267.21 746.823C264.269 743.882 260.281 742.23 256.122 742.23C251.963 742.23 247.974 743.882 245.034 746.823C242.093 749.764 240.441 753.752 240.441 757.911C240.441 762.07 242.093 766.059 245.034 768.999C247.974 771.94 251.963 773.592 256.122 773.592ZM339.753 689.961C343.912 689.961 347.901 688.308 350.841 685.368C353.782 682.427 355.434 678.438 355.434 674.28C355.434 670.121 353.782 666.132 350.841 663.191C347.901 660.251 343.912 658.599 339.753 658.599C335.594 658.599 331.606 660.251 328.665 663.191C325.724 666.132 324.072 670.121 324.072 674.28C324.072 678.438 325.724 682.427 328.665 685.368C331.606 688.308 335.594 689.961 339.753 689.961Z" fill="#4B7FE2"/>
</g>
<defs>
<clipPath id="clip0_54_2">
<rect width="1589" height="1589" fill="white"/>
</clipPath>
</defs>
</svg>
