<svg width="252" height="377" viewBox="0 0 252 377" fill="none" xmlns="http://www.w3.org/2000/svg">
<path d="M88.596 364.405H100.856L104.689 317.117H88.594L88.596 364.405Z" fill="#FFB8B8"/>
<path d="M85.4692 360.403L109.613 360.402H109.614C111.635 360.402 113.635 360.8 115.502 361.573C117.369 362.346 119.065 363.479 120.494 364.908C121.923 366.337 123.056 368.033 123.829 369.9C124.603 371.767 125.001 373.767 125.001 375.788V376.288L85.47 376.289L85.4692 360.403Z" fill="#4E4C6C"/>
<path d="M22.596 364.405H34.856L40.689 317.117H22.594L22.596 364.405Z" fill="#FFB8B8"/>
<path d="M19.4692 360.403L43.613 360.402H43.614C45.6346 360.402 47.6354 360.8 49.5022 361.573C51.369 362.346 53.0652 363.479 54.494 364.908C55.9227 366.337 57.0561 368.033 57.8293 369.9C58.6026 371.767 59.0005 373.767 59.0005 375.788V376.288L19.47 376.289L19.4692 360.403Z" fill="#4E4C6C"/>
<path d="M24.7713 349.467C23.5207 349.467 22.3159 348.996 21.3963 348.149C20.9026 347.698 20.505 347.153 20.2274 346.545C19.9497 345.937 19.7978 345.279 19.7805 344.611L14.8639 168.398L84.675 185.85L106.215 250.468C108.992 258.781 110.195 267.538 109.76 276.292L107.085 338.929C107.024 340.212 106.471 341.422 105.541 342.309C104.611 343.195 103.376 343.689 102.091 343.688H90.3821C89.1735 343.683 88.0072 343.242 87.0971 342.447C86.1871 341.652 85.5942 340.555 85.4272 339.358L77.0583 270.216C76.3271 264.823 74.4402 259.65 71.5266 255.052L55.0571 228.976C54.947 228.802 54.7858 228.666 54.5955 228.587C54.4052 228.508 54.1951 228.49 53.994 228.535C53.7928 228.579 53.6105 228.685 53.4719 228.838C53.3333 228.99 53.2451 229.182 53.2195 229.386L40.2949 344.475C40.1561 345.642 39.61 346.723 38.7527 347.527C37.8953 348.331 36.7817 348.807 35.6079 348.871L25.0559 349.458C24.961 349.463 24.8663 349.467 24.7713 349.467Z" fill="#4E4C6C"/>
<path d="M73.0576 54.3114C86.6223 54.3114 97.6186 43.3151 97.6186 29.7504C97.6186 16.1857 86.6223 5.18939 73.0576 5.18939C59.4929 5.18939 48.4966 16.1857 48.4966 29.7504C48.4966 43.3151 59.4929 54.3114 73.0576 54.3114Z" fill="#FFB8B8"/>
<path d="M84.3406 193.017C83.918 193.016 83.4971 192.963 83.0877 192.858L13.8226 175.098C12.5842 174.781 11.5144 174.001 10.8332 172.919C10.1519 171.838 9.91087 170.536 10.1597 169.282L26.0669 83.5914C27.0579 78.6381 29.2364 73.9993 32.4151 70.0734C35.5938 66.1475 39.6779 63.0517 44.3166 61.0518C48.8365 59.0514 53.7793 58.1943 58.7089 58.5562C63.6384 58.9182 68.403 60.4879 72.5823 63.127C73.552 63.732 74.5288 64.3917 75.4849 65.088C79.3337 67.9272 82.4725 71.6196 84.6549 75.8754C86.8374 80.1312 88.0041 84.8348 88.0637 89.6173L89.3286 187.946C89.3371 188.607 89.2145 189.264 88.9679 189.877C88.7212 190.491 88.3554 191.05 87.8917 191.521C87.4279 191.993 86.8753 192.367 86.2658 192.624C85.6563 192.881 85.0019 193.014 84.3406 193.017Z" fill="#4B7FE2"/>
<path d="M20.9493 194.024C20.123 192.809 19.5734 191.426 19.3392 189.975C19.1049 188.524 19.1918 187.039 19.5935 185.625C19.9953 184.21 20.7022 182.902 21.6645 181.79C22.6269 180.679 23.8212 179.792 25.1633 179.192L22.0825 143.59L38.4085 152.439L38.8311 184.89C39.6894 187.212 39.6663 189.768 38.7662 192.073C37.8661 194.379 36.1515 196.274 33.9473 197.4C31.7431 198.526 29.2026 198.804 26.8069 198.182C24.4113 197.56 22.3271 196.081 20.9493 194.024Z" fill="#FFB8B8"/>
<path d="M26.782 174.483C26.3213 174.483 25.8626 174.425 25.4163 174.311C24.4564 174.066 23.5806 173.566 22.8814 172.864C22.1822 172.163 21.6857 171.285 21.4444 170.324L13.4212 138.441C10.6173 127.305 11.9539 115.53 17.1824 105.306L33.9912 72.4239C35.0538 68.487 37.6211 65.1255 41.1396 63.0642C44.658 61.003 48.8456 60.4072 52.7993 61.4053C54.77 61.903 56.6222 62.7868 58.2486 64.0057C59.8751 65.2246 61.2434 66.7542 62.2742 68.5059C63.3262 70.2827 64.0142 72.251 64.2982 74.2963C64.5822 76.3415 64.4564 78.4228 63.9282 80.419L40.0008 133.925L40.2849 165.961C40.2923 167.091 39.9525 168.196 39.3114 169.127C38.6704 170.057 37.759 170.769 36.7005 171.165L28.6931 174.139C28.0817 174.367 27.4345 174.483 26.782 174.483Z" fill="#4B7FE2"/>
<path d="M141.318 180.929C139.857 180.762 138.451 180.277 137.198 179.508C135.945 178.738 134.876 177.704 134.067 176.477C133.257 175.25 132.726 173.86 132.512 172.406C132.297 170.952 132.404 169.468 132.825 168.059L103.831 147.17L121.188 140.568L146.06 161.417C148.379 162.281 150.301 163.966 151.461 166.152C152.622 168.338 152.94 170.874 152.355 173.279C151.771 175.684 150.324 177.792 148.29 179.201C146.256 180.611 143.775 181.226 141.318 180.929Z" fill="#FFB8B8"/>
<path d="M126.14 165.675C125.285 165.674 124.442 165.475 123.677 165.093L94.278 150.376C84.0094 145.236 75.9567 136.542 71.6174 125.911L57.6601 91.7203C55.3696 88.3465 54.4967 84.2077 55.2296 80.1962C55.9624 76.1848 58.2424 72.622 61.5778 70.276C63.2443 69.1042 65.1274 68.2758 67.1173 67.8391C69.1072 67.4025 71.1641 67.3662 73.1681 67.7325C75.1957 68.0971 77.1308 68.8604 78.8612 69.9783C80.5917 71.0961 82.083 72.5463 83.249 74.2447L108.194 127.284L132.66 147.967C133.521 148.698 134.137 149.677 134.425 150.77C134.712 151.863 134.657 153.018 134.267 154.079L131.297 162.087C130.909 163.137 130.209 164.043 129.29 164.683C128.366 165.329 127.267 165.675 126.14 165.675Z" fill="#4B7FE2"/>
<path d="M67.9002 54.6874C69.2052 55.2584 71.8775 44.8601 70.6804 42.7804C68.9002 39.6874 69.0054 39.7096 67.8236 37.6634C66.6418 35.6171 66.3774 32.8162 67.9078 31.0157C69.4382 29.2153 72.9798 29.4541 73.6782 31.7115C73.2289 27.4237 77.4701 23.977 81.6712 23.0084C85.8723 22.0398 90.3037 22.6412 94.5279 21.7793C99.4303 20.7789 104.531 16.6695 102.575 11.2786C102.239 10.381 101.737 9.55512 101.094 8.84448C98.8341 6.30354 95.6729 5.21856 92.582 4.1695C86.152 1.98704 79.546 -0.222852 72.7599 0.0180681C67.1685 0.310418 61.7836 2.2264 57.2642 5.53153C52.7448 8.83665 49.2868 13.3875 47.3136 18.6273C46.8459 19.9381 46.4836 21.2842 46.2301 22.6527C43.9009 35.1769 51.1738 47.5306 62.9864 52.2998L67.9002 54.6874Z" fill="#4E4C6C"/>
<path opacity="0.2" d="M38.9 166.687L39.457 133.758L56.9 98.6874L42.9 134.687L38.9 166.687Z" fill="black"/>
<path d="M197.077 249.327L123.439 218.731C121.825 218.066 120.384 217.042 119.225 215.736C118.066 214.43 117.221 212.877 116.753 211.196C116.272 209.494 116.185 207.706 116.499 205.966C116.814 204.226 117.521 202.581 118.567 201.156C137.165 175.548 149.474 145.923 154.498 114.676C154.77 112.929 155.437 111.267 156.448 109.817C157.459 108.367 158.787 107.166 160.332 106.307C161.854 105.452 163.551 104.955 165.294 104.855C167.037 104.754 168.78 105.053 170.39 105.728L244.028 136.323C246.568 137.387 248.647 139.317 249.896 141.771C251.145 144.225 251.483 147.042 250.849 149.721C242.617 183.211 229.308 215.244 211.384 244.707C209.932 247.047 207.698 248.795 205.078 249.641C202.458 250.487 199.623 250.376 197.077 249.327Z" fill="#E6E6E6"/>
<path d="M168.088 111.269C167.315 110.944 166.478 110.801 165.641 110.848C164.804 110.896 163.989 111.135 163.258 111.545C162.506 111.964 161.86 112.549 161.369 113.256C160.877 113.963 160.554 114.772 160.422 115.623C155.248 147.803 142.572 178.314 123.418 204.687C122.908 205.38 122.563 206.18 122.409 207.026C122.255 207.873 122.296 208.743 122.529 209.572C122.754 210.379 123.16 211.126 123.717 211.753C124.273 212.38 124.966 212.871 125.741 213.191L199.379 243.786C200.6 244.294 201.962 244.352 203.221 243.949C204.481 243.547 205.557 242.711 206.257 241.59C223.864 212.649 236.937 181.184 245.023 148.287C245.323 147 245.156 145.647 244.553 144.471C243.949 143.295 242.947 142.371 241.726 141.864L168.088 111.269Z" fill="white"/>
<path d="M207.297 179.376L168.655 163.321C167.186 162.709 166.021 161.539 165.414 160.069C164.807 158.599 164.807 156.948 165.416 155.478L166.316 153.313C166.928 151.845 168.097 150.679 169.567 150.072C171.038 149.465 172.689 149.466 174.158 150.074L212.801 166.13C214.269 166.741 215.435 167.911 216.042 169.381C216.649 170.851 216.648 172.502 216.039 173.972L215.14 176.137C214.528 177.606 213.358 178.771 211.888 179.378C210.418 179.985 208.767 179.985 207.297 179.376Z" fill="#4B7FE2"/>
<path d="M195.93 206.734L157.288 190.679C155.819 190.067 154.654 188.898 154.047 187.427C153.44 185.957 153.441 184.306 154.049 182.836L154.949 180.671C155.561 179.203 156.73 178.037 158.2 177.43C159.671 176.823 161.322 176.824 162.791 177.433L201.434 193.488C202.902 194.1 204.068 195.269 204.675 196.739C205.282 198.21 205.281 199.861 204.672 201.33L203.773 203.496C203.161 204.964 201.992 206.129 200.521 206.737C199.051 207.344 197.4 207.343 195.93 206.734Z" fill="#4B7FE2"/>
<path d="M222.781 140.926C222.203 140.926 221.63 140.814 221.094 140.596L182.156 124.853C181.05 124.405 180.168 123.536 179.702 122.438C179.236 121.339 179.225 120.101 179.671 118.995L182.669 111.578C183.117 110.471 183.985 109.588 185.084 109.122C186.183 108.656 187.422 108.646 188.528 109.093L227.466 124.835C228.572 125.284 229.454 126.153 229.92 127.251C230.386 128.349 230.397 129.587 229.951 130.694L226.953 138.111C226.616 138.942 226.039 139.653 225.296 140.154C224.553 140.656 223.678 140.925 222.781 140.926Z" fill="#CCCCCC"/>
<path d="M141 376.844H1C0.734784 376.844 0.480444 376.739 0.292908 376.551C0.105371 376.364 0 376.11 0 375.844C0 375.579 0.105371 375.325 0.292908 375.137C0.480444 374.95 0.734784 374.844 1 374.844H141C141.265 374.844 141.52 374.95 141.707 375.137C141.895 375.325 142 375.579 142 375.844C142 376.11 141.895 376.364 141.707 376.551C141.52 376.739 141.265 376.844 141 376.844Z" fill="#CCCCCC"/>
</svg>
