<svg width="112" height="42" viewBox="0 0 112 42" fill="none" xmlns="http://www.w3.org/2000/svg">
<path d="M64.2437 29C61.9507 29 59.9563 28.5905 58.2606 27.7714C56.5649 26.9333 55.2642 25.7524 54.3585 24.2286C53.4528 22.7048 53 20.9333 53 18.9143C53 16.1143 53.5299 13.6286 54.5897 11.4571C55.6688 9.28571 57.1237 7.60952 58.9543 6.42857C60.7849 5.22857 62.8178 4.62857 65.053 4.62857C67.1342 4.62857 68.7142 5.1619 69.7933 6.22857C70.8724 7.27619 71.412 8.66667 71.412 10.4C71.412 11.5619 71.2 12.4952 70.7761 13.2C70.3714 13.9048 69.7837 14.2571 69.0129 14.2571C68.4734 14.2571 68.0494 14.1333 67.7411 13.8857C67.4328 13.6381 67.2787 13.2762 67.2787 12.8C67.2787 12.6286 67.3172 12.3143 67.3943 11.8571C67.5099 11.2857 67.5677 10.8286 67.5677 10.4857C67.5677 8.75238 66.6331 7.88572 64.764 7.88572C63.4922 7.88572 62.2782 8.29524 61.1221 9.11429C59.9659 9.93333 59.0313 11.1429 58.3184 12.7429C57.6054 14.3238 57.2489 16.2095 57.2489 18.4C57.2489 20.6857 57.8944 22.4571 59.1855 23.7143C60.4766 24.9524 62.3842 25.5714 64.9085 25.5714C66.161 25.5714 67.4232 25.419 68.695 25.1143C69.986 24.7905 71.412 24.3048 72.9728 23.6571C73.2618 23.5429 73.5027 23.4857 73.6954 23.4857C74.0037 23.4857 74.2349 23.6 74.3891 23.8286C74.5433 24.0571 74.6203 24.3524 74.6203 24.7143C74.6203 25.8762 73.9844 26.7333 72.7127 27.2857C71.3445 27.8762 69.9186 28.3143 68.4348 28.6C66.9704 28.8667 65.5733 29 64.2437 29Z" fill="#4B7FE2"/>
<path d="M88.3945 22.4857C88.645 22.4857 88.8377 22.6 88.9726 22.8286C89.1268 23.0571 89.2039 23.3714 89.2039 23.7714C89.2039 24.5333 89.0208 25.1238 88.6547 25.5429C87.7683 26.5524 86.853 27.381 85.9088 28.0286C84.9838 28.6762 83.924 29 82.7293 29C81.7466 29 81.0047 28.7238 80.5037 28.1714C80.0027 27.6 79.7522 26.781 79.7522 25.7143C79.7522 25.181 79.8871 24.2286 80.1568 22.8571C80.4073 21.6571 80.5326 20.8286 80.5326 20.3714C80.5326 20.0667 80.4266 19.9143 80.2147 19.9143C79.9641 19.9143 79.6077 20.2381 79.1452 20.8857C78.6827 21.5143 78.2203 22.3524 77.7578 23.4C77.2953 24.4476 76.9196 25.5524 76.6305 26.7143C76.2644 28.2381 75.3587 29 73.9135 29C73.3355 29 72.9501 28.8 72.7574 28.4C72.5839 27.981 72.4972 27.2381 72.4972 26.1714C72.4972 25.5619 72.5069 25.0762 72.5261 24.7143L72.555 22.4286C72.555 19.4952 72.8537 16.4381 73.4511 13.2571C74.0677 10.0762 74.9637 7.40952 76.1392 5.25714C77.3339 3.08571 78.7598 2 80.417 2C81.3034 2 82.0163 2.38095 82.5559 3.14286C83.1147 3.88571 83.3941 4.85714 83.3941 6.05714C83.3941 7.98095 82.8257 9.98095 81.6888 12.0571C80.5519 14.1143 78.702 16.5238 76.1392 19.2857C76.0813 20.2762 76.0524 21.2952 76.0524 22.3429C76.6883 20.7238 77.3917 19.4095 78.1625 18.4C78.9525 17.3714 79.7233 16.6381 80.4748 16.2C81.2456 15.7619 81.9489 15.5429 82.5848 15.5429C83.8373 15.5429 84.4636 16.1619 84.4636 17.4C84.4636 18.1429 84.2516 19.4857 83.8277 21.4286C83.4616 23.0857 83.2785 24.181 83.2785 24.7143C83.2785 25.4762 83.5579 25.8571 84.1167 25.8571C84.5021 25.8571 84.9549 25.6286 85.4752 25.1714C86.0148 24.6952 86.7277 23.9333 87.6141 22.8857C87.8454 22.619 88.1055 22.4857 88.3945 22.4857ZM79.81 4.82857C79.4631 4.82857 79.0778 5.32381 78.6538 6.31429C78.2299 7.28571 77.8156 8.60952 77.4109 10.2857C77.0256 11.9429 76.7076 13.7524 76.4571 15.7143C77.6518 14.3238 78.6346 12.8095 79.4053 11.1714C80.1954 9.53333 80.5904 8.04762 80.5904 6.71429C80.5904 6.10476 80.523 5.6381 80.3881 5.31429C80.2532 4.99048 80.0605 4.82857 79.81 4.82857Z" fill="#4B7FE2"/>
<path d="M90.4165 29C89.2218 29 88.2679 28.5714 87.555 27.7143C86.842 26.8571 86.4855 25.7333 86.4855 24.3429C86.4855 22.819 86.842 21.381 87.555 20.0286C88.2679 18.6571 89.2121 17.5619 90.3876 16.7429C91.5823 15.9048 92.8444 15.4857 94.174 15.4857C94.5979 15.4857 94.8774 15.5714 95.0122 15.7429C95.1664 15.8952 95.2916 16.181 95.388 16.6C95.7927 16.5238 96.2166 16.4857 96.6598 16.4857C97.604 16.4857 98.0761 16.819 98.0761 17.4857C98.0761 17.8857 97.9316 18.8381 97.6425 20.3429C97.1993 22.5333 96.9777 24.0571 96.9777 24.9143C96.9777 25.2 97.0452 25.4286 97.1801 25.6C97.3342 25.7714 97.5269 25.8571 97.7581 25.8571C98.1243 25.8571 98.5675 25.6286 99.0877 25.1714C99.608 24.6952 100.311 23.9333 101.198 22.8857C101.429 22.619 101.689 22.4857 101.978 22.4857C102.229 22.4857 102.421 22.6 102.556 22.8286C102.71 23.0571 102.787 23.3714 102.787 23.7714C102.787 24.5333 102.604 25.1238 102.238 25.5429C101.448 26.5143 100.61 27.3333 99.7236 28C98.8372 28.6667 97.9797 29 97.1512 29C96.5153 29 95.9275 28.7905 95.388 28.3714C94.8677 27.9333 94.4727 27.3429 94.2029 26.6C93.2009 28.2 91.9388 29 90.4165 29ZM91.457 26.1143C91.881 26.1143 92.2856 25.8667 92.671 25.3714C93.0564 24.8762 93.3358 24.219 93.5092 23.4L94.5787 18.1429C93.7694 18.1619 93.0179 18.4667 92.3242 19.0571C91.6497 19.6286 91.1102 20.3905 90.7055 21.3429C90.3009 22.2952 90.0985 23.3048 90.0985 24.3714C90.0985 24.9619 90.2141 25.4 90.4454 25.6857C90.6959 25.9714 91.0331 26.1143 91.457 26.1143Z" fill="#4B7FE2"/>
<path d="M105.208 18.2571C105.169 19.2095 105.15 19.9524 105.15 20.4857C105.15 21.8571 105.217 22.9333 105.352 23.7143C105.506 24.4762 105.747 25.0286 106.075 25.3714C106.421 25.6952 106.894 25.8571 107.491 25.8571C107.799 25.8571 108.165 25.7619 108.589 25.5714C109.013 25.381 109.399 25.1333 109.745 24.8286C109.957 24.6381 110.169 24.5429 110.381 24.5429C110.613 24.5429 110.796 24.6762 110.931 24.9429C111.085 25.1905 111.162 25.4952 111.162 25.8571C111.162 26.219 111.085 26.5714 110.931 26.9143C110.796 27.2571 110.584 27.5429 110.295 27.7714C109.293 28.5905 108.156 29 106.884 29C105.053 29 103.714 28.2476 102.866 26.7429C102.018 25.219 101.594 23.2381 101.594 20.8C101.594 19.9619 101.623 19.1143 101.681 18.2571H100.554C99.9759 18.2571 99.5808 18.1524 99.3689 17.9429C99.1762 17.7333 99.0798 17.4 99.0798 16.9429C99.0798 15.8762 99.5134 15.3429 100.381 15.3429H102.028C102.356 13.2476 102.857 11.3333 103.531 9.6C104.206 7.86667 105.015 6.48571 105.959 5.45714C106.922 4.42857 107.953 3.91429 109.052 3.91429C109.861 3.91429 110.497 4.26667 110.959 4.97143C111.422 5.67619 111.653 6.56191 111.653 7.62857C111.653 10.581 110.401 13.1524 107.896 15.3429H111.133C111.441 15.3429 111.663 15.4095 111.798 15.5429C111.933 15.6762 112 15.9238 112 16.2857C112 17.6 110.911 18.2571 108.734 18.2571H105.208ZM108.271 6.65714C107.982 6.65714 107.655 7.01905 107.289 7.74286C106.942 8.44762 106.605 9.4381 106.277 10.7143C105.969 11.9714 105.709 13.3714 105.497 14.9143C106.633 13.9429 107.481 12.8571 108.04 11.6571C108.618 10.4381 108.907 9.33333 108.907 8.34286C108.907 7.21905 108.695 6.65714 108.271 6.65714Z" fill="#4B7FE2"/>
<path fill-rule="evenodd" clip-rule="evenodd" d="M5.25 0H36.75C39.6457 0 42 2.35416 42 5.24969V28.8733C42 31.7688 39.6457 34.123 36.75 34.123H24.9375L14.6918 41.8089C14.0437 42.2846 13.125 41.8171 13.125 41.0132V34.123H5.25C2.3543 34.123 0 31.7688 0 28.8733V5.24969C0 2.35416 2.3543 0 5.25 0ZM22.5203 29.7281C25.0701 29.7281 26.8201 28.3678 26.8201 25.3873V15.5641H23.9422V25.3463C23.9422 26.7887 23.3406 27.1578 22.3973 27.1578C21.4061 27.1578 20.9959 26.481 20.5447 25.6812L18.2 27.0963C18.8836 28.5387 20.2166 29.7281 22.5203 29.7281ZM28.3855 26.7887C29.2264 28.4566 30.9559 29.7281 33.6287 29.7281C36.3563 29.7281 38.3934 28.3062 38.3934 25.7223C38.3934 23.316 37.0193 22.2428 34.5721 21.1969L33.8543 20.8892C32.617 20.3492 32.0838 20.0006 32.0838 19.1392C32.0838 18.442 32.617 17.9088 33.4578 17.9088C34.285 17.9088 34.8182 18.2574 35.3104 19.1392L37.5525 17.7037C36.6092 16.0357 35.2967 15.4 33.4646 15.4C30.9012 15.4 29.2537 17.0406 29.2537 19.2008C29.2537 21.5455 30.6277 22.6598 32.7059 23.5416L33.4236 23.8492C34.743 24.4303 35.5223 24.7789 35.5223 25.7633C35.5223 26.5904 34.7566 27.1851 33.5672 27.1851C32.1521 27.1851 31.3455 26.44 30.7303 25.4351L28.3855 26.7887Z" fill="#4B7FE2"/>
</svg>
