<svg width="751" height="1314" viewBox="0 0 751 1314" fill="none" xmlns="http://www.w3.org/2000/svg">
<g clip-path="url(#clip0_41_36)">
<path d="M375.232 248.051L723.91 449.173V851.418L375.232 1052.54L26.8214 851.418V449.173L375.232 248.051ZM80.4643 480.012V820.58L375.232 990.595L670.267 820.311V480.012L375.232 309.997L80.4643 480.012ZM0 402.245L348.142 201.122V0H294.499V170.284L0 340.299V401.977V402.245ZM0 898.347L348.142 1099.47V1314H294.499V1130.31L0 960.293V898.615V898.347ZM402.321 0V201.122L750.732 402.245H751V340.299H750.732L455.964 170.284V0H402.321ZM402.321 1314V1099.47L750.732 898.347H751V960.293H750.732L455.964 1130.31V1314H402.321Z" fill="#4B7FE2"/>
</g>
<defs>
<clipPath id="clip0_41_36">
<rect width="751" height="1314" fill="white"/>
</clipPath>
</defs>
</svg>
