<svg width="42" height="42" viewBox="0 0 42 42" fill="none" xmlns="http://www.w3.org/2000/svg">
<path fill-rule="evenodd" clip-rule="evenodd" d="M5.25 0H36.75C39.6457 0 42 2.35416 42 5.24969V28.8733C42 31.7688 39.6457 34.123 36.75 34.123H24.9375L14.6918 41.8089C14.0437 42.2846 13.125 41.8171 13.125 41.0132V34.123H5.25C2.3543 34.123 0 31.7688 0 28.8733V5.24969C0 2.35416 2.3543 0 5.25 0ZM22.5203 29.7281C25.0701 29.7281 26.8201 28.3678 26.8201 25.3873V15.5641H23.9422V25.3463C23.9422 26.7887 23.3406 27.1578 22.3973 27.1578C21.4061 27.1578 20.9959 26.481 20.5447 25.6812L18.2 27.0963C18.8836 28.5387 20.2166 29.7281 22.5203 29.7281ZM28.3855 26.7887C29.2264 28.4566 30.9559 29.7281 33.6287 29.7281C36.3563 29.7281 38.3934 28.3062 38.3934 25.7223C38.3934 23.316 37.0193 22.2428 34.5721 21.1969L33.8543 20.8892C32.617 20.3492 32.0838 20.0006 32.0838 19.1392C32.0838 18.442 32.617 17.9088 33.4578 17.9088C34.285 17.9088 34.8182 18.2574 35.3104 19.1392L37.5525 17.7037C36.6092 16.0357 35.2967 15.4 33.4646 15.4C30.9012 15.4 29.2537 17.0406 29.2537 19.2008C29.2537 21.5455 30.6277 22.6598 32.7059 23.5416L33.4236 23.8492C34.743 24.4303 35.5223 24.7789 35.5223 25.7633C35.5223 26.5904 34.7566 27.1851 33.5672 27.1851C32.1521 27.1851 31.3455 26.44 30.7303 25.4351L28.3855 26.7887Z" fill="#4B7FE2"/>
</svg>
